{
  "source": "C:\\Users\\Peter\\Desktop\\stuff\\MIUN\\quantitative_research\\video_compression\\videos\\BVI-HD\\BVI-HD_CDVL_videos\\ORIG\\BridgeRiver_1920x1080_30fps.mp4",
  "output": "C:\\Users\\Peter\\Desktop\\stuff\\MIUN\\quantitative_research\\video_compression\\compressed_videos\\BVI-HD\\vp9\\3\\BridgeRiver_1920x1080_30fps_vp9.webm",
  "codec": "vp9",
  "ok": "Input #0, mov,mp4,m4a,3gp,3g2,mj2, from 'C:\\Users\\Peter\\Desktop\\stuff\\MIUN\\quantitative_research\\video_compression\\videos\\BVI-HD\\BVI-HD_CDVL_videos\\ORIG\\BridgeRiver_1920x1080_30fps.mp4':\n  Metadata:\n    major_brand     : isom\n    minor_version   : 512\n    compatible_brands: isomiso2avc1mp41\n    encoder         : Lavf54.28.101\n  Duration: 00:00:05.00, start: 0.000000, bitrate: 274913 kb/s\n  Stream #0:0[0x1](und): Video: h264 (High 4:4:4 Predictive) (avc1 / 0x31637661), yuv420p(progressive), 1920x1080, 274910 kb/s, 30 fps, 30 tbr, 30 tbn (default)\n    Metadata:\n      handler_name    : VideoHandler\n      vendor_id       : [0][0][0][0]\n[out#0/webm @ 0000022a70ca9240] Codec AVOption b:a (set bitrate (in bits/s)) has not been used for any stream. The most likely reason is either wrong type (e.g. a video option with no video streams) or that it is a private option of some decoder which was not actually used for any stream.\nStream mapping:\n  Stream #0:0 -> #0:0 (h264 (native) -> vp9 (libvpx-vp9))\nPress [q] to stop, [?] for help\n[libvpx-vp9 @ 0000022a717504c0] v1.15.2-100-g40561f514\nOutput #0, webm, to 'C:\\Users\\Peter\\Desktop\\stuff\\MIUN\\quantitative_research\\video_compression\\compressed_videos\\BVI-HD\\vp9\\3\\BridgeRiver_1920x1080_30fps_vp9.webm':\n  Metadata:\n    major_brand     : isom\n    minor_version   : 512\n    compatible_brands: isomiso2avc1mp41\n    encoder         : Lavf62.3.100\n  Stream #0:0(und): Video: vp9, yuv420p(tv, progressive), 1920x1080, q=2-31, 3000 kb/s, 30 fps, 1k tbn (default)\n    Metadata:\n      encoder         : Lavc62.11.100 libvpx-vp9\n      handler_name    : VideoHandler\n      vendor_id       : [0][0][0][0]\n    Side data:\n      cpb: bitrate max/min/avg: 0/0/0 buffer size: 3000000 vbv_delay: N/A\nframe=    0 fps=0.0 q=0.0 size=       0KiB time=N/A bitrate=N/A speed=N/A elapsed=0:00:00.52    \nframe=    0 fps=0.0 q=0.0 size=       0KiB time=N/A bitrate=N/A speed=N/A elapsed=0:00:01.05    \nframe=    2 fps=1.2 q=31.0 size=       1KiB time=00:00:00.06 bitrate=  76.1kbits/s speed=0.0409x elapsed=0:00:01.63    \nframe=    6 fps=2.8 q=63.0 size=       1KiB time=00:00:00.20 bitrate=  25.4kbits/s speed=0.0922x elapsed=0:00:02.16    \nframe=    9 fps=3.3 q=61.0 size=       1KiB time=00:00:00.30 bitrate=  16.9kbits/s speed=0.11x elapsed=0:00:02.72    \nframe=   12 fps=3.6 q=61.0 size=       1KiB time=00:00:00.40 bitrate=  12.7kbits/s speed=0.121x elapsed=0:00:03.29    \nframe=   15 fps=3.9 q=61.0 size=       1KiB time=00:00:00.50 bitrate=  10.1kbits/s speed=0.13x elapsed=0:00:03.85    \nframe=   18 fps=4.1 q=61.0 size=       1KiB time=00:00:00.60 bitrate=   8.5kbits/s speed=0.136x elapsed=0:00:04.39    \nframe=   20 fps=4.0 q=61.0 size=       1KiB time=00:00:00.66 bitrate=   7.6kbits/s speed=0.135x elapsed=0:00:04.94    \nframe=   23 fps=4.2 q=61.0 size=       1KiB time=00:00:00.76 bitrate=   6.6kbits/s speed=0.139x elapsed=0:00:05.50    \nframe=   26 fps=4.3 q=61.0 size=       1KiB time=00:00:00.86 bitrate=   5.9kbits/s speed=0.144x elapsed=0:00:06.03    \nframe=   29 fps=4.4 q=61.0 size=       1KiB time=00:00:00.96 bitrate=   5.2kbits/s speed=0.147x elapsed=0:00:06.56    \nframe=   32 fps=4.5 q=61.0 size=       1KiB time=00:00:01.06 bitrate=   4.8kbits/s speed=0.151x elapsed=0:00:07.07    \nframe=   35 fps=4.6 q=61.0 size=       1KiB time=00:00:01.16 bitrate=   4.3kbits/s speed=0.154x elapsed=0:00:07.60    \nframe=   38 fps=4.7 q=61.0 size=       1KiB time=00:00:01.26 bitrate=   4.0kbits/s speed=0.156x elapsed=0:00:08.14    \nframe=   41 fps=4.7 q=40.0 size=       1KiB time=00:00:01.36 bitrate=   3.7kbits/s speed=0.158x elapsed=0:00:08.66    \nframe=   43 fps=4.6 q=61.0 size=       1KiB time=00:00:01.43 bitrate=   3.5kbits/s speed=0.154x elapsed=0:00:09.30    \nframe=   45 fps=4.5 q=62.0 size=       1KiB time=00:00:01.50 bitrate=   3.4kbits/s speed=0.151x elapsed=0:00:09.94    \nframe=   47 fps=4.4 q=62.0 size=       1KiB time=00:00:01.56 bitrate=   3.2kbits/s speed=0.148x elapsed=0:00:10.61    \nframe=   49 fps=4.3 q=62.0 size=       1KiB time=00:00:01.63 bitrate=   3.1kbits/s speed=0.145x elapsed=0:00:11.28    \nframe=   51 fps=4.3 q=40.0 size=       1KiB time=00:00:01.70 bitrate=   3.0kbits/s speed=0.143x elapsed=0:00:11.86    \nframe=   55 fps=4.4 q=62.0 size=       1KiB time=00:00:01.83 bitrate=   2.8kbits/s speed=0.148x elapsed=0:00:12.40    \nframe=   58 fps=4.5 q=62.0 size=       1KiB time=00:00:01.93 bitrate=   2.6kbits/s speed=0.149x elapsed=0:00:12.96    \nframe=   61 fps=4.5 q=40.0 size=       1KiB time=00:00:02.03 bitrate=   2.5kbits/s speed=0.15x elapsed=0:00:13.54    \nframe=   64 fps=4.5 q=62.0 size=       1KiB time=00:00:02.13 bitrate=   2.4kbits/s speed=0.151x elapsed=0:00:14.09    \nframe=   67 fps=4.6 q=62.0 size=       1KiB time=00:00:02.23 bitrate=   2.3kbits/s speed=0.153x elapsed=0:00:14.62    \nframe=   70 fps=4.6 q=62.0 size=       1KiB time=00:00:02.33 bitrate=   2.2kbits/s speed=0.154x elapsed=0:00:15.17    \nframe=   74 fps=4.7 q=62.0 size=       1KiB time=00:00:02.43 bitrate=   2.1kbits/s speed=0.155x elapsed=0:00:15.70    \nframe=   76 fps=4.7 q=61.0 size=       1KiB time=00:00:02.50 bitrate=   2.0kbits/s speed=0.154x elapsed=0:00:16.23    \nframe=   78 fps=4.6 q=62.0 size=       1KiB time=00:00:02.60 bitrate=   2.0kbits/s speed=0.155x elapsed=0:00:16.78    \nframe=   80 fps=4.6 q=62.0 size=       1KiB time=00:00:02.66 bitrate=   1.9kbits/s speed=0.154x elapsed=0:00:17.32    \nframe=   83 fps=4.7 q=61.0 size=       1KiB time=00:00:02.76 bitrate=   1.8kbits/s speed=0.155x elapsed=0:00:17.84    \nframe=   87 fps=4.7 q=62.0 size=       1KiB time=00:00:02.90 bitrate=   1.7kbits/s speed=0.158x elapsed=0:00:18.38    \nframe=   89 fps=4.7 q=62.0 size=       1KiB time=00:00:02.96 bitrate=   1.7kbits/s speed=0.157x elapsed=0:00:18.92    \nframe=   92 fps=4.7 q=62.0 size=       1KiB time=00:00:03.06 bitrate=   1.7kbits/s speed=0.157x elapsed=0:00:19.48    \nframe=   95 fps=4.7 q=62.0 size=       1KiB time=00:00:03.16 bitrate=   1.6kbits/s speed=0.158x elapsed=0:00:20.06    \nframe=   98 fps=4.8 q=62.0 size=       1KiB time=00:00:03.26 bitrate=   1.6kbits/s speed=0.158x elapsed=0:00:20.61    \nframe=  100 fps=4.7 q=62.0 size=       1KiB time=00:00:03.33 bitrate=   1.5kbits/s speed=0.158x elapsed=0:00:21.12    \nframe=  104 fps=4.8 q=62.0 size=       1KiB time=00:00:03.46 bitrate=   1.5kbits/s speed=0.16x elapsed=0:00:21.64    \nframe=  107 fps=4.8 q=62.0 size=       1KiB time=00:00:03.56 bitrate=   1.4kbits/s speed=0.161x elapsed=0:00:22.21    \nframe=  110 fps=4.8 q=62.0 size=       1KiB time=00:00:03.66 bitrate=   1.4kbits/s speed=0.161x elapsed=0:00:22.77    \nframe=  112 fps=4.8 q=62.0 size=       1KiB time=00:00:03.73 bitrate=   1.4kbits/s speed=0.16x elapsed=0:00:23.33    \nframe=  115 fps=4.8 q=62.0 size=       1KiB time=00:00:03.83 bitrate=   1.3kbits/s speed=0.161x elapsed=0:00:23.88    \nframe=  118 fps=4.8 q=62.0 size=       1KiB time=00:00:03.93 bitrate=   1.3kbits/s speed=0.161x elapsed=0:00:24.40    \nframe=  120 fps=4.8 q=62.0 size=       1KiB time=00:00:04.00 bitrate=   1.3kbits/s speed=0.16x elapsed=0:00:24.95    \nframe=  124 fps=4.9 q=63.0 size=       1KiB time=00:00:04.13 bitrate=   1.2kbits/s speed=0.162x elapsed=0:00:25.47    \nframe=  126 fps=4.8 q=62.0 size=       1KiB time=00:00:04.20 bitrate=   1.2kbits/s speed=0.161x elapsed=0:00:26.01    \nframe=  126 fps=4.7 q=62.0 size=       1KiB time=00:00:04.20 bitrate=   1.2kbits/s speed=0.158x elapsed=0:00:26.60    \nframe=  126 fps=4.6 q=62.0 size=       1KiB time=00:00:04.20 bitrate=   1.2kbits/s speed=0.155x elapsed=0:00:27.15    \nframe=  126 fps=4.5 q=62.0 size=       1KiB time=00:00:04.20 bitrate=   1.2kbits/s speed=0.151x elapsed=0:00:27.72    \nframe=  126 fps=4.5 q=62.0 size=       1KiB time=00:00:04.20 bitrate=   1.2kbits/s speed=0.149x elapsed=0:00:28.24    \nframe=  126 fps=4.4 q=62.0 size=       1KiB time=00:00:04.20 bitrate=   1.2kbits/s speed=0.146x elapsed=0:00:28.76    \nframe=  126 fps=4.3 q=62.0 size=       1KiB time=00:00:04.20 bitrate=   1.2kbits/s speed=0.143x elapsed=0:00:29.28    \nframe=  126 fps=4.2 q=62.0 size=       1KiB time=00:00:04.20 bitrate=   1.2kbits/s speed=0.141x elapsed=0:00:29.81    \n[out#0/webm @ 0000022a70ca9240] video:1916KiB audio:0KiB subtitle:0KiB other streams:0KiB global headers:0KiB muxing overhead: 0.089904%\nframe=  150 fps=5.0 q=62.0 Lsize=    1918KiB time=00:00:05.00 bitrate=3142.2kbits/s speed=0.166x elapsed=0:00:30.08    \n",
  "seconds": 30.44482421875,
  "probe_out": {}
}